<?xml version="1.0" encoding="UTF-8" standalone="no"?>
<!DOCTYPE svg PUBLIC "-//W3C//DTD SVG 1.1//EN" "http://www.w3.org/Graphics/SVG/1.1/DTD/svg11.dtd">

<!-- Created with Vectornator (http://vectornator.io/) -->
<svg height="100%" stroke-miterlimit="10" style="fill-rule:nonzero;clip-rule:evenodd;stroke-linecap:round;stroke-linejoin:round;" version="1.1" viewBox="0 0 1024 1024" width="100%" xml:space="preserve" xmlns="http://www.w3.org/2000/svg" xmlns:vectornator="http://vectornator.io" xmlns:xlink="http://www.w3.org/1999/xlink">
<metadata>
<vectornator:setting key="IsTimeLapseWatermarkDisabled" value="false"/>
<vectornator:setting key="UndoHistoryDisabled" value="false"/>
<vectornator:setting key="VNDimensionsVisible" value="true"/>
<vectornator:setting key="VNSnapToGuides" value="true"/>
<vectornator:setting key="WDCMYKEnabledKey" value="false"/>
<vectornator:setting key="WDDisplayWhiteBackground" value="false"/>
<vectornator:setting key="WDDynamicGuides" value="false"/>
<vectornator:setting key="WDGuidesVisible" value="true"/>
<vectornator:setting key="WDIsolateActiveLayer" value="false"/>
<vectornator:setting key="WDOutlineMode" value="false"/>
<vectornator:setting key="WDRulersVisible" value="true"/>
<vectornator:setting key="WDSnapToEdges" value="false"/>
<vectornator:setting key="WDSnapToGrid" value="false"/>
<vectornator:setting key="WDSnapToPoints" value="false"/>
<vectornator:setting key="WDUnits" value="Pixels"/>
</metadata>
<defs>
<clipPath id="TextBounds">
<rect height="869.487" width="706.116" x="151.212" y="27.8921"/>
</clipPath>
</defs>
<g id="Bold" vectornator:layerName="Bold" visibility="hidden">
<path d="M327.062 198.688L315.406 254.344L622.594 254.344L622.594 200.688C603.563 199.403 578.833 198.688 547.219 198.688L327.062 198.688ZM700.531 320.031L700.531 431.25C700.857 430.814 701.211 430.41 701.531 429.969C715.447 410.796 722.406 390.685 722.406 369.656C722.406 348.624 715.06 332.122 700.531 320.031ZM262.5 506.969L192.156 842.938L495.812 842.938C536.025 842.938 570.963 840.118 600.938 834.625L560.75 734.125C540.521 737.506 511.825 739.219 474.281 739.219L346.406 739.219L381.562 570.906L539.75 570.906C576.664 570.906 603.055 577.865 618.875 591.781C620.197 592.944 621.382 594.16 622.594 595.375L622.594 506.969L262.5 506.969ZM748.688 554.125C721.605 566.754 689.732 575.533 652.812 580.25C670.749 596.331 687.604 617.527 703.375 643.812C718.386 669.375 734.252 700.139 750.906 735.844C769.156 703.885 778.375 670.306 778.375 635.062C778.375 605.766 769.072 579.479 750.469 556.188C749.9 555.475 749.27 554.824 748.688 554.125ZM622.594 699.531C614.764 709.475 605.304 717.406 594.219 723.375L635.438 826.406C637.522 825.781 639.701 825.223 641.719 824.562C636.144 809.772 629.854 793.7 622.594 775.781L622.594 699.531Z" fill="#6ca680" fill-rule="evenodd" opacity="1" stroke="none"/>
</g>
<g id="Rold" vectornator:layerName="Rold" visibility="hidden">
<path clip-path="url(#TextBounds)" d="M324.978 842.892L192.263 842.892L327.175 198.654L613.259 198.654C662.478 198.654 700.784 203.708 728.176 213.815C755.569 223.922 777.688 242.453 794.534 269.406C811.379 296.359 819.802 329.025 819.802 367.404C819.802 422.189 803.396 467.379 770.583 502.975C737.771 538.571 688.113 560.617 621.609 569.113C638.601 584.347 654.568 604.416 669.509 629.318C699.099 679.708 732.058 750.9 768.386 842.892L626.003 842.892C614.577 806.564 592.165 749.875 558.767 672.824C540.603 631.222 521.267 603.244 500.759 588.888C488.161 580.392 466.189 576.144 434.841 576.144L380.788 576.144L324.978 842.892ZM401.003 479.464L471.316 479.464C542.507 479.464 589.748 475.216 613.039 466.72C636.33 458.224 654.568 444.894 667.751 426.73C680.935 408.566 687.527 389.523 687.527 369.601C687.527 346.164 678.005 328.585 658.962 316.867C647.243 309.835 621.902 306.32 582.937 306.32L437.038 306.32L401.003 479.464Z" fill="#6ca680" fill-rule="evenodd" opacity="1" stroke="none"/>
</g>
<g id="B" vectornator:layerName="B">
<path d="M251.125 516.156L177.031 869.906L514.438 869.906C558.664 869.906 597.2 866.865 630.312 860.906L628.969 860.906C620.5 833.979 606.109 796.032 586.781 748.969C564.292 752.74 532.36 754.687 490.531 754.688L348.438 754.688L387.5 567.656L405.531 567.656L405.531 516.562L283.125 516.562L283.219 516.156L251.125 516.156ZM791.875 545.062C761.982 560.139 726.059 570.358 684.094 575.719C702.974 592.646 720.711 614.924 737.312 642.594C755.368 673.341 774.59 711.31 794.906 756C817.156 718.986 828.406 679.988 828.406 638.969C828.406 606.417 818.077 577.191 797.406 551.312C795.663 549.129 793.737 547.13 791.875 545.062Z" fill="#047857" fill-rule="evenodd" opacity="1" stroke="none"/>
</g>
<g id="R" vectornator:layerName="R">
<path d="M324.501 869.91L177.04 869.91L326.942 154.09L644.813 154.09C699.501 154.09 742.063 159.705 772.499 170.936C802.935 182.166 827.512 202.755 846.229 232.703C864.947 262.651 874.306 298.947 874.306 341.59C874.306 402.462 856.076 452.674 819.618 492.225C783.16 531.776 727.984 556.271 654.091 565.711C672.971 582.638 690.712 604.936 707.313 632.606C740.191 688.595 776.812 767.697 817.177 869.91L658.974 869.91C646.278 829.546 621.376 766.557 584.267 680.945C564.084 634.722 542.6 603.634 519.813 587.684C505.816 578.244 481.402 573.524 446.571 573.524L386.513 573.524L324.501 869.91ZM408.974 466.102L487.099 466.102C566.2 466.102 618.69 461.382 644.569 451.942C670.448 442.501 690.712 427.69 705.36 407.508C720.009 387.326 727.333 366.167 727.333 344.031C727.333 317.99 716.754 298.458 695.595 285.438C682.574 277.625 654.416 273.719 611.122 273.719L449.013 273.719L408.974 466.102Z" fill="#047857" fill-rule="evenodd" opacity="1" stroke="none"/>
</g>
</svg>
